<?xml version="1.0" standalone="no"?><!DOCTYPE svg PUBLIC "-//W3C//DTD SVG 1.1//EN" "http://www.w3.org/Graphics/SVG/1.1/DTD/svg11.dtd"><svg t="1627963620021" class="icon" viewBox="0 0 1110 1024" version="1.1" xmlns="http://www.w3.org/2000/svg" p-id="1563" xmlns:xlink="http://www.w3.org/1999/xlink" width="216.796875" height="200"><defs><style type="text/css"></style></defs><path d="M555.391306 840.756068C374.108594 840.756068 226.62656 693.282712 226.62656 512c0-181.282712 147.490712-328.764746 328.764746-328.764746 181.282712 0 328.764746 147.482034 328.764746 328.764746 0 181.282712-147.490712 328.756068-328.764746 328.756068z" fill="#F2C500" p-id="1564"></path><path d="M555.391306 183.235254v657.529492c181.282712 0 328.764746-147.490712 328.764746-328.764746 0-181.282712-147.490712-328.764746-328.764746-328.764746z" fill="#F59D00" p-id="1565"></path><path d="M1085.875374 512h-19.464678C1066.402018 230.226441 837.164865 0.98061 555.391306 0.98061a45.151458 45.151458 0 0 0 0 90.302915c231.97939 0 420.707797 188.728407 420.707796 420.707797h-19.456c-19.143593 0-31.110508 20.731661-21.547389 37.315254l64.624813 111.919729c9.571797 16.574915 33.496949 16.574915 43.077424 0l64.616135-111.919729c9.571797-16.574915-2.395119-37.315254-21.538711-37.315254z" fill="#48AEE2" p-id="1566"></path><path d="M555.391306 932.707797c-231.97939 0-420.707797-188.728407-420.707797-420.707797h19.456c19.143593 0 31.110508-20.731661 21.538712-37.315254l-64.616136-111.911051c-9.571797-16.574915-33.505627-16.574915-43.077423 0L3.368526 474.684746C-6.203271 491.268339 5.763645 512 24.907238 512h19.464678c0 281.773559 229.237153 511.010712 511.010712 511.010712A45.151458 45.151458 0 0 0 555.391306 932.707797z" fill="#65C6BB" p-id="1567"></path><path d="M571.237272 474.945085v-48.700746c21.686237 1.666169 28.029831 12.340068 39.033491 12.340068 14.674441 0 20.679593-18.336542 20.679594-27.344271 0-23.013966-39.024814-28.359593-59.704407-29.019119v-8.339525c0-11.402847-25.348339-12.183864-25.348339 0v9.337491c-35.362712 5.007186-66.716203 25.348339-66.716204 67.71417 0 42.695593 36.022237 57.031593 66.716204 68.703457v54.037695c-24.688814-4.338983-36.022237-24.011932-50.037153-24.011932-12.678508 0-22.684203 16.670373-22.684203 28.012474 0 21.347797 32.689898 42.02739 72.721356 43.363797v8.330848c0 12.227254 25.339661 11.35078 25.339661 0v-9.667255c39.033492-6.334915 65.709559-31.353492 65.709559-72.712678 0-45.029966-35.354034-60.702373-65.709559-72.044474z m-22.007322-8.001085c-32.637831-13.745898-24.280949-34.842034 0-39.693017v39.684339z m18.674983 106.400542v-44.691525c30.754712 14.518237 23.985898 39.050847 0 44.691525z" fill="#F59D00" p-id="1568"></path><path d="M571.237272 474.945085v-48.700746c21.686237 1.666169 28.029831 12.340068 39.033491 12.340068 14.674441 0 20.679593-18.336542 20.679594-27.344271 0-23.013966-39.024814-28.359593-59.704407-29.019119v-8.339525c0-6.673356-8.66061-9.675932-15.854644-8.608543v272.713763c7.202712 1.041356 15.845966-1.978576 15.845966-8.608543v-9.667254c39.033492-6.334915 65.709559-31.353492 65.709559-72.712678 0-45.038644-35.354034-60.711051-65.709559-72.053152z m-3.332339 98.399457v-44.691525c30.754712 14.518237 23.985898 39.050847 0 44.691525z" fill="#E87E04" p-id="1569"></path></svg>