<?xml version="1.0" standalone="no"?><!DOCTYPE svg PUBLIC "-//W3C//DTD SVG 1.1//EN" "http://www.w3.org/Graphics/SVG/1.1/DTD/svg11.dtd"><svg t="1627963503667" class="icon" viewBox="0 0 1024 1024" version="1.1" xmlns="http://www.w3.org/2000/svg" p-id="1155" xmlns:xlink="http://www.w3.org/1999/xlink" width="200" height="200"><defs><style type="text/css"></style></defs><path d="M253 845.5c-11 0-20-9-20-20v-640c0-11 9-20 20-20s20 9 20 20v640c0 11-9 20-20 20z" fill="#4C6070" p-id="1156"></path><path d="M307 378.5H199c-3.3 0-6 2.7-6 6v240c0 4.4 3.6 8 8 8h104c4.4 0 8-3.6 8-8v-240c0-3.3-2.7-6-6-6z" fill="#FFBD5C" p-id="1157"></path><path d="M333 338.5H173c-11 0-20 9-20 20V652.5c0 11 9 20 20 20h160c11 0 20-9 20-20V358.5c0-11-9-20-20-20z m-20 286c0 4.4-3.6 8-8 8H201c-4.4 0-8-3.6-8-8v-240c0-3.3 2.7-6 6-6h108c3.3 0 6 2.7 6 6v240z" fill="#4C6070" p-id="1158"></path><path d="M518 905.5c-11 0-20-9-20-20v-640c0-11 9-20 20-20s20 9 20 20v640c0 11-9 20-20 20z" fill="#4C6070" p-id="1159"></path><path d="M572 438.5H464c-3.3 0-6 2.7-6 6v240c0 4.4 3.6 8 8 8h104c4.4 0 8-3.6 8-8v-240c0-3.3-2.7-6-6-6z" fill="#FFBD5C" p-id="1160"></path><path d="M598 398.5H438c-11 0-20 9-20 20V712.5c0 11 9 20 20 20h160c11 0 20-9 20-20V418.5c0-11-9-20-20-20z m-20 286c0 4.4-3.6 8-8 8H466c-4.4 0-8-3.6-8-8v-240c0-3.3 2.7-6 6-6h108c3.3 0 6 2.7 6 6v240z" fill="#4C6070" p-id="1161"></path><path d="M783 805.5c-11 0-20-9-20-20v-640c0-11 9-20 20-20s20 9 20 20v640c0 11-9 20-20 20z" fill="#4C6070" p-id="1162"></path><path d="M837 338.5H729c-3.3 0-6 2.7-6 6v240c0 4.4 3.6 8 8 8h104c4.4 0 8-3.6 8-8v-240c0-3.3-2.7-6-6-6z" fill="#FFBD5C" p-id="1163"></path><path d="M863 298.5H703c-11 0-20 9-20 20V612.5c0 11 9 20 20 20h160c11 0 20-9 20-20V318.5c0-11-9-20-20-20z m-20 286c0 4.4-3.6 8-8 8H731c-4.4 0-8-3.6-8-8v-240c0-3.3 2.7-6 6-6h108c3.3 0 6 2.7 6 6v240z" fill="#4C6070" p-id="1164"></path></svg>