<?xml version="1.0" standalone="no"?><!DOCTYPE svg PUBLIC "-//W3C//DTD SVG 1.1//EN" "http://www.w3.org/Graphics/SVG/1.1/DTD/svg11.dtd"><svg t="1627963601427" class="icon" viewBox="0 0 1024 1024" version="1.1" xmlns="http://www.w3.org/2000/svg" p-id="1430" xmlns:xlink="http://www.w3.org/1999/xlink" width="200" height="200"><defs><style type="text/css"></style></defs><path d="M672.256 682.9568c-1.2288-2.048-2.6112-3.9936-4.0448-5.8368 14.2336-14.2336 26.7776-30.5152 37.1712-48.896 10.2912-18.2784 17.7664-37.376 22.5792-56.7808 2.304 0.256 4.6592 0.4608 7.0656 0.4096 31.2832-0.256 56.4736-25.856 56.2176-57.1392-0.256-31.2832-25.856-56.4736-57.1392-56.2176-2.4064 0-4.8128 0.256-7.1168 0.5632-10.496-39.424-31.488-76.032-61.9008-105.1136 1.3824-1.8944 2.7136-3.84 3.8912-5.888 15.36-27.2896 5.7344-61.8496-21.504-77.2096-27.2896-15.36-61.8496-5.7344-77.2096 21.504-1.1776 2.0992-2.1504 4.1984-3.0208 6.4-40.4992-10.9056-82.5856-10.0352-121.6512 1.28-0.9216-2.1504-1.9456-4.3008-3.2256-6.4-15.9232-26.9312-50.688-35.8912-77.6192-19.968s-35.8912 50.688-19.968 77.6192c1.2288 2.048 2.6112 3.9936 4.0448 5.8368a226.90816 226.90816 0 0 0-37.1712 48.896c-10.2912 18.2784-17.7664 37.376-22.5792 56.7808-2.304-0.256-4.6592-0.4608-7.0656-0.4096-31.2832 0.256-56.4736 25.856-56.2176 57.1392 0.256 31.2832 25.856 56.4736 57.1392 56.2176 2.4064 0 4.8128-0.256 7.1168-0.5632 10.496 39.424 31.488 76.032 61.9008 105.1136-1.3824 1.8944-2.7136 3.84-3.8912 5.888-15.36 27.2896-5.7344 61.8496 21.504 77.2096 27.2896 15.36 61.8496 5.7344 77.2096-21.504 1.1776-2.0992 2.1504-4.1984 3.0208-6.4 40.4992 10.9056 82.5856 10.0352 121.6512-1.28 0.9216 2.1504 1.9456 4.3008 3.2256 6.4 15.9232 26.9312 50.688 35.8912 77.6192 19.968 26.9824-15.872 35.8912-50.6368 19.968-77.6192z" fill="#ffe048" p-id="1431"></path><path d="M365.3632 863.8976c-15.5648 0-31.2832-3.8912-45.7216-12.032-21.76-12.288-37.376-32.256-44.0832-56.2688-6.144-22.016-4.096-45.0048 5.7344-65.4336-31.3344-33.3824-54.8864-73.472-69.0688-117.2992-48.6912-2.7648-87.6544-43.008-88.064-92.4672-0.2048-24.9344 9.3184-48.4864 26.8288-66.304 16.0256-16.2816 37.0176-26.0096 59.5968-27.648 6.6048-21.6576 15.5648-42.5472 26.6752-62.3104 11.2128-19.8656 24.576-38.4512 39.8336-55.3984-21.9648-43.52-6.656-97.3312 35.8912-122.4704s97.1776-12.544 124.6208 27.7504a311.11168 311.11168 0 0 1 135.68-1.4336c26.7264-40.7552 80.9984-54.3744 124.0064-30.1056 43.008 24.2688 59.392 77.7728 38.3488 121.7024 2.4064 2.56 4.7616 5.1712 7.0656 7.7824a20.43904 20.43904 0 0 1-1.8944 28.8768 20.43392 20.43392 0 0 1-28.8768-1.8944c-5.12-5.8368-10.5472-11.52-16.128-16.896a20.50048 20.50048 0 0 1-2.304-26.9824c1.536-2.048 2.6624-3.7888 3.6352-5.4784 14.1824-25.1904 5.2736-57.2416-19.9168-71.424-25.1904-14.1824-57.2416-5.2736-71.4752 19.9168-0.9216 1.6384-1.8432 3.5328-2.816 5.9392a20.4288 20.4288 0 0 1-24.2688 11.9808c-47.5136-12.8-97.8432-12.288-145.5104 1.536-9.8816 2.8672-20.3776-2.048-24.4736-11.52-1.024-2.4064-1.9968-4.3008-2.9696-5.9392a51.9936 51.9936 0 0 0-32.1024-24.1152c-13.568-3.4816-27.6992-1.4848-39.7312 5.632-24.8832 14.6944-33.1776 46.9504-18.4832 71.8336 0.9728 1.6384 2.1504 3.3792 3.7376 5.4272a20.48512 20.48512 0 0 1-1.7408 27.0336c-17.408 17.408-32.3584 37.0688-44.4416 58.4704a270.09536 270.09536 0 0 0-26.9824 67.8912 20.47488 20.47488 0 0 1-22.272 15.4112c-2.56-0.3072-4.6592-0.4096-6.5536-0.4096-14.0288 0.1024-27.1872 5.6832-36.9664 15.6672s-15.1552 23.1936-15.0528 37.2224c0.256 28.7744 23.7056 52.0192 52.4288 52.0192h0.4608c1.8944 0 3.9936-0.2048 6.6048-0.5632 10.2912-1.28 19.8656 5.0688 22.528 15.0528 12.8 48.128 38.4 91.5968 73.984 125.7472a20.50048 20.50048 0 0 1 2.304 26.9824c-1.536 2.0992-2.7136 3.84-3.6352 5.4784-14.2336 25.1904-5.2736 57.2416 19.9168 71.4752 25.1904 14.1824 57.2416 5.2736 71.4752-19.9168 0.9216-1.6384 1.8432-3.5328 2.816-5.9392a20.44928 20.44928 0 0 1 24.2688-11.9808c47.5136 12.8 97.8432 12.288 145.5104-1.536 9.8816-2.8672 20.3776 2.048 24.4736 11.52 1.0752 2.4576 1.9968 4.352 2.9696 5.9904 14.6944 24.8832 46.9504 33.1776 71.8336 18.4832 24.8832-14.6944 33.1776-46.9504 18.4832-71.8336-0.9728-1.6384-2.1504-3.328-3.7888-5.4272a20.47488 20.47488 0 0 1 1.7408-26.9824c17.408-17.408 32.3584-37.12 44.4416-58.4704 12.032-21.2992 21.0944-44.1344 26.9824-67.8912a20.52096 20.52096 0 0 1 22.272-15.4112c2.56 0.3072 4.6592 0.4096 6.6048 0.4096 14.0288-0.1024 27.136-5.6832 36.9664-15.6672s15.1552-23.1936 15.0528-37.2224c-0.1024-14.0288-5.6832-27.136-15.6672-36.9664s-23.3472-15.0528-37.2224-15.0528c-1.9456 0-4.0448 0.2048-6.656 0.5632-10.24 1.3312-19.8656-5.0688-22.528-15.0528-2.1504-7.9872-4.6592-16.0256-7.5264-23.8592a20.48 20.48 0 0 1 38.4512-14.08c1.3824 3.84 2.7648 7.7312 3.9936 11.6224 22.6816 1.28 43.8272 10.5984 60.16 26.6752 17.7664 17.5104 27.6992 40.8576 27.904 65.8432s-9.3184 48.4864-26.7776 66.304a92.44672 92.44672 0 0 1-59.5968 27.648 314.24 314.24 0 0 1-26.6752 62.3104c-11.2128 19.8656-24.576 38.4512-39.8336 55.3984 21.9648 43.4688 6.656 97.3312-35.8912 122.4704-42.5984 25.1392-97.1776 12.544-124.6208-27.7504a311.11168 311.11168 0 0 1-135.68 1.4336c-17.7152 26.8288-47.616 41.9328-78.2848 41.9328z" fill="#55524F" p-id="1432"></path><path d="M508.2624 659.712c-24.2176 0-48.128-6.2464-69.8368-18.4832-33.1776-18.688-57.0368-49.2032-67.2768-85.8624s-5.5296-75.1104 13.1584-108.288c18.688-33.1776 49.2032-57.0368 85.8624-67.2768s75.1104-5.5296 108.288 13.1584c33.1776 18.688 57.0368 49.2032 67.2768 85.8624s5.5296 75.1104-13.1584 108.288c-18.688 33.1776-49.2032 57.0368-85.8624 67.2768-12.6976 3.584-25.6 5.3248-38.4512 5.3248z m0.3584-244.1728c-9.1648 0-18.3296 1.2288-27.392 3.7888a100.9152 100.9152 0 0 0-61.184 47.9232c-27.4944 48.7936-10.24 110.848 38.5536 138.3424 48.7936 27.5456 110.848 10.24 138.3424-38.5536 13.312-23.6032 16.64-51.0464 9.3696-77.1584a100.9152 100.9152 0 0 0-47.9232-61.184 100.6592 100.6592 0 0 0-49.7664-13.1584z" fill="#55524F" p-id="1433"></path></svg>